<?xml version="1.0" encoding="utf-8"?>
<svg id="master-artboard" viewBox="0 0 401.3 401.29998779296875" version="1.1" xmlns="http://www.w3.org/2000/svg" x="0px" y="0px" style="enable-background:new 0 0 1400 980;" width="401.29998779296875px" height="401.29998779296875px"><rect id="ee-background" x="0" y="0" width="401.29998779296875" height="401.29998779296875" style="fill: white; fill-opacity: 0; pointer-events: none;"/>



<g transform="matrix(1.570108413696289, 0, 0, 1.570108413696289, -99.19891357421875, -51.879878997802734)">
	<g>
		
		
		
		
		
		
		
		
		
		
		
		
	</g>
	<g transform="matrix(1, 0, 0, 1, -508.2348617445208, -145.95463064093562)">
		<path class="st1" d="M822,407.7c0,12.3-10,22.3-22.3,22.3H600.3c-12.3,0-22.3-10-22.3-22.3V208.4c0-12.3,10-22.3,22.3-22.3h199.3&#10;&#9;&#9;&#9;c12.3,0,22.3,10,22.3,22.3V407.7z" style="fill: rgb(255, 255, 255);" transform="matrix(0.9999999999999999, 0, 0, 0.9999999999999999, -1.2262262316653505e-9, -1.2737973928451538)"/>
		<path class="st2" d="M816.9,194.2v188.3c0,11.8-9.6,21.4-21.4,21.4h-191c-11.8,0-21.4-9.6-21.4-21.4V194.2&#10;&#9;&#9;&#9;c-3.2,3.9-5.1,8.8-5.1,14.2v199.3c0,12.3,10,22.3,22.3,22.3h199.3c12.3,0,22.3-10,22.3-22.3V208.4C822,203,820.1,198,816.9,194.2z&#10;&#9;&#9;&#9;" style="fill: rgb(187, 189, 191);" transform="matrix(0.9999999999999999, 0, 0, 0.9999999999999999, -1.2262262316653505e-9, -1.2737973928451538)"/>
		<path class="st3" d="M799.7,436H600.3c-15.6,0-28.3-12.7-28.3-28.3V208.4c0-15.6,12.7-28.3,28.3-28.3h199.3&#10;&#9;&#9;&#9;c15.6,0,28.3,12.7,28.3,28.3v199.3C828,423.3,815.3,436,799.7,436z M600.3,192c-9,0-16.3,7.3-16.3,16.3v199.3&#10;&#9;&#9;&#9;c0,9,7.3,16.3,16.3,16.3h199.3c9,0,16.3-7.3,16.3-16.3V208.4c0-9-7.3-16.3-16.3-16.3H600.3z" style="fill: rgb(35, 31, 32);" transform="matrix(0.9999999999999999, 0, 0, 0.9999999999999999, -0.6368986976488031, -1.2737973928451538)"/>
		<path d="M 802.699987 380.700012 A 10.9 10.9 0 0 1 791.799988 391.600012 A 10.9 10.9 0 0 1 780.899988 380.700012 A 10.9 10.9 0 0 1 791.799988 369.800013 A 10.9 10.9 0 0 1 802.699987 380.700012 Z" class="st3" style="fill: rgb(35, 31, 32);" transform="matrix(0.9999999999999999, 0, 0, 0.9999999999999999, -1.2262262316653505e-9, -1.2737973928451538)"/>
		<path d="M 805.899988 380.700012 A 14.1 14.1 0 0 1 791.799988 394.800013 A 14.1 14.1 0 0 1 777.699987 380.700012 A 14.1 14.1 0 0 1 791.799988 366.600012 A 14.1 14.1 0 0 1 805.899988 380.700012 Z" class="st5" style="fill: none; stroke: rgb(35, 31, 32); stroke-width: 3; stroke-miterlimit: 10;" transform="matrix(0.9999999999999999, 0, 0, 0.9999999999999999, -1.2262262316653505e-9, -1.2737973928451538)"/>
		<path class="st3" d="M600.5,384.5c0,2.9,2.3,5.2,5.2,5.2h30.7c2.9,0,5.2-2.3,5.2-5.2l0,0c0-2.9-2.3-5.2-5.2-5.2h-30.7&#10;&#9;&#9;&#9;C602.8,379.3,600.5,381.7,600.5,384.5L600.5,384.5z" style="fill: rgb(35, 31, 32);" transform="matrix(0.9999999999999999, 0, 0, 0.9999999999999999, -1.2262262316653505e-9, -1.2737973928451538)"/>
		<path d="M 788 295 A 88 88 0 0 1 700 383 A 88 88 0 0 1 612 295 A 88 88 0 0 1 700 207 A 88 88 0 0 1 788 295 Z" class="st3" style="fill: rgb(35, 31, 32);" transform="matrix(0.9999999999999999, 0, 0, 0.9999999999999999, -1.2262262316653505e-9, -1.2737973928451538)"/>
		<path d="M 726 295 A 26 26 0 0 1 700 321 A 26 26 0 0 1 674 295 A 26 26 0 0 1 700 269 A 26 26 0 0 1 726 295 Z" class="st1" style="fill: rgb(255, 255, 255);" transform="matrix(0.9999999999999999, 0, 0, 0.9999999999999999, -1.2262262316653505e-9, -1.2737973928451538)"/>
		<path d="M 733.299999 295 A 33.299999 33.299999 0 0 1 700 328.299999 A 33.299999 33.299999 0 0 1 666.700001 295 A 33.299999 33.299999 0 0 1 700 261.700001 A 33.299999 33.299999 0 0 1 733.299999 295 Z" class="st6" style="fill: none; stroke: rgb(255, 255, 255); stroke-width: 3; stroke-miterlimit: 10;" transform="matrix(0.9999999999999999, 0, 0, 0.9999999999999999, -1.2262262316653505e-9, -1.2737973928451538)"/>
		<path d="M 705.3 295 A 5.3 5.3 0 0 1 700 300.3 A 5.3 5.3 0 0 1 694.7 295 A 5.3 5.3 0 0 1 700 289.7 A 5.3 5.3 0 0 1 705.3 295 Z" class="st3" style="fill: rgb(35, 31, 32);" transform="matrix(0.9999999999999999, 0, 0, 0.9999999999999999, -1.2262262316653505e-9, -1.2737973928451538)"/>
		<g transform="matrix(0.9999999999999999, 0, 0, 0.9999999999999999, -1.2262262316653505e-9, -1.2737973928451538)">
			<path class="st7" d="M746.6,331.2c-1-0.3-1.9-0.9-2.6-1.8c-1.7-2.2-1.2-5.3,1-7l14.9-11.2l25.8-89.2c0.8-2.7,3.5-4.2,6.2-3.4&#10;&#9;&#9;&#9;&#9;c2.7,0.8,4.2,3.5,3.4,6.2l-26.3,90.8c-0.3,1-0.9,2-1.8,2.6L751,330.4C749.7,331.4,748.1,331.7,746.6,331.2z" style="fill: rgb(255, 255, 255); stroke: rgb(35, 31, 32); stroke-width: 3; stroke-miterlimit: 10;"/>
		</g>
		<path class="st3" d="M797.6,231.6c-0.6,2.1-2.8,3.3-5,2.7l-9.6-2.8c-2.1-0.6-3.3-2.8-2.7-5l5-17.1c0.6-2.1,2.8-3.3,5-2.7l9.6,2.8&#10;&#9;&#9;&#9;c2.1,0.6,3.3,2.8,2.7,5L797.6,231.6z" style="fill: rgb(35, 31, 32);" transform="matrix(0.9999999999999999, 0, 0, 0.9999999999999999, -1.2262262316653505e-9, -1.2737973928451538)"/>
		<path class="st7" d="M618.6,390.8c0,2.2-1.8,4.1-4.1,4.1l0,0c-2.2,0-4.1-1.8-4.1-4.1v-13.1c0-2.2,1.8-4.1,4.1-4.1l0,0&#10;&#9;&#9;&#9;c2.2,0,4.1,1.8,4.1,4.1V390.8z" style="fill: rgb(255, 255, 255); stroke: rgb(35, 31, 32); stroke-width: 3; stroke-miterlimit: 10;" transform="matrix(0.9999999999999999, 0, 0, 0.9999999999999999, -1.2262262316653505e-9, -1.2737973928451538)"/>
	<path d="M 709.7504272460938 168.1485137939453" style="fill: rgb(35, 31, 32); fill-opacity: 1; stroke: rgb(0, 0, 0); stroke-opacity: 1; stroke-width: 0; paint-order: fill;"/></g>
	<g>
		
		
		
		
		
		
		
		
		
		
		
		
		
		
	</g>
	<g>
		
		
		
		
		
		
		
		
		
		
		
		
		
		
		
	</g>
	<g>
		
		
		
		
		
		
	</g>
	<g>
		
		
		
		
		
		
		
		
		
		
		
		
		
		
		
		
		
		
		
		
		
		
	</g>
</g></svg>